<svg width="15" height="17" viewBox="0 0 15 17" fill="none" xmlns="http://www.w3.org/2000/svg">
<path fill-rule="evenodd" clip-rule="evenodd" d="M5.92591 0.166748C5.31227 0.166748 4.81481 0.664206 4.81481 1.27786C4.81481 1.58468 4.56608 1.83341 4.25925 1.83341H4.16666H1.66666C1.20643 1.83341 0.833328 2.20651 0.833328 2.66675C0.833328 3.12698 1.20643 3.50008 1.66666 3.50008H4.16666H4.25925H10.7394H10.7407H10.8333H13.3333C13.7936 3.50008 14.1667 3.12698 14.1667 2.66675C14.1667 2.20651 13.7936 1.83341 13.3333 1.83341H10.7401C10.4336 1.83305 10.1852 1.58446 10.1852 1.27786C10.1852 0.664206 9.68774 0.166748 9.07408 0.166748H5.92591Z" fill="#F8F7F5"/>
<path fill-rule="evenodd" clip-rule="evenodd" d="M2.5 5.16699C2.26696 5.16699 2.04457 5.26458 1.88677 5.43607C1.72898 5.60756 1.65019 5.83729 1.66955 6.06953L2.31185 13.7772C2.45582 15.5048 3.90004 16.8337 5.63367 16.8337H9.36634C11.1 16.8337 12.5442 15.5048 12.6882 13.7772L13.3304 6.06953C13.3498 5.83729 13.271 5.60756 13.1133 5.43607C12.9554 5.26458 12.7331 5.16699 12.5 5.16699H2.5Z" fill="#F8F7F5"/>
</svg>
