<svg width="67" height="41" viewBox="0 0 67 41" fill="none" xmlns="http://www.w3.org/2000/svg">
<path d="M16.0941 17.239L17.4482 20.3884H14.7506L16.0941 17.239ZM44.2161 17.37H39.0081V18.7583H44.1321V20.8383H39.0186V22.3861H44.2266V23.6267L47.8601 19.8579L44.2266 15.9296L44.2161 17.37ZM19.614 13.4417H26.6029L28.1547 16.6901L29.5927 13.4316H47.7342L49.6201 15.4294L51.5707 13.4316H59.9032L53.7469 19.8982L59.8402 26.3244H51.3835L49.4976 24.3267L47.5295 26.3244H17.9468L17.0826 24.3267H15.1057L14.2398 26.3244H7.39777L13.1464 13.4316H19.1469L19.614 13.4417ZM34.7692 15.2514H30.8523L28.2281 21.1875L25.3853 15.2514H21.4981V23.3262L17.8943 15.2514H14.4077L10.2406 24.5047H12.9609L13.8251 22.507H18.3666L19.2309 24.5047H23.9893V17.8988L27.0525 24.5147H29.1343L32.1783 17.9189V24.5164H34.729L34.771 15.2497L34.7692 15.2514ZM51.1088 19.8982L55.5366 15.2514H52.3492L49.5483 18.1489L46.8402 15.2514H36.5291V24.5147H46.6933L49.5168 21.5971L52.2249 24.5147H55.5051L51.1106 19.8982H51.1088Z" fill="#BABABA"/>
</svg>
