<svg width="67" height="41" viewBox="0 0 67 41" fill="none" xmlns="http://www.w3.org/2000/svg">
<path d="M18.0441 13.5923C18.6004 12.925 18.9776 12.0289 18.8782 11.1133C18.0643 11.1521 17.0714 11.6285 16.4961 12.2965C15.9798 12.8684 15.5229 13.8018 15.6418 14.679C16.5555 14.755 17.4684 14.241 18.0441 13.5923Z" fill="#BABABA"/>
<path d="M18.8648 14.8547C17.5374 14.7787 16.4097 15.5771 15.7762 15.5771C15.1422 15.5771 14.1719 14.8927 13.1223 14.9114C11.7565 14.9304 10.4893 15.6718 9.79594 16.8505C8.37032 19.2079 9.41952 22.7059 10.8063 24.626C11.4795 25.5765 12.291 26.6221 13.36 26.5845C14.3704 26.5465 14.7662 25.9571 15.9937 25.9571C17.2208 25.9571 17.5774 26.5845 18.6468 26.5655C19.7555 26.5465 20.4489 25.6149 21.1221 24.6644C21.8947 23.5808 22.2105 22.5352 22.2303 22.4781C22.2105 22.4591 20.0923 21.6793 20.0725 19.3409C20.0527 17.3828 21.7358 16.4513 21.8151 16.3938C20.8645 15.0448 19.3795 14.8927 18.8644 14.8547" fill="#BABABA"/>
<path d="M32.0876 12.207C34.9714 12.207 36.9798 14.1146 36.9798 16.8917C36.9798 19.6787 34.9302 21.5962 32.0155 21.5962H28.8227V26.4691H26.5159V12.207H32.0876ZM28.8227 19.738H31.4695C33.4784 19.738 34.6211 18.7004 34.6211 16.9016C34.6211 15.1032 33.478 14.0751 31.4798 14.0751H28.8227V19.738Z" fill="#BABABA"/>
<path d="M37.5501 23.5114C37.5501 21.6829 39.0023 20.6354 41.68 20.4772L44.5534 20.3091V19.5183C44.5534 18.3624 43.7606 17.7297 42.3496 17.7297C41.1855 17.7297 40.3407 18.3027 40.1664 19.1822H38.0854C38.1476 17.3343 39.96 15.9902 42.4114 15.9902C45.0479 15.9902 46.7679 17.3145 46.7679 19.3704V26.4664H44.6362V24.7566H44.5847C43.9769 25.8733 42.6377 26.5748 41.1855 26.5748C39.0435 26.5748 37.5501 25.3497 37.5501 23.5114ZM44.5534 22.5924V21.7916L41.989 21.9498C40.5468 22.0388 39.7955 22.5524 39.7955 23.4517C39.7955 24.3216 40.5781 24.8851 41.8036 24.8851C43.3687 24.8851 44.5534 23.9262 44.5534 22.5924Z" fill="#BABABA"/>
<path d="M48.7321 30.2777V28.5682C48.8763 28.5876 49.2262 28.6074 49.4116 28.6074C50.4311 28.6074 51.008 28.1929 51.3582 27.1249L51.5643 26.4926L47.6607 16.1152H50.0705L52.7898 24.5356H52.8413L55.5602 16.1152H57.9087L53.8608 27.0161C52.9336 29.5168 51.8729 30.3374 49.6279 30.3374C49.4528 30.3374 48.8862 30.3176 48.7321 30.2777Z" fill="#BABABA"/>
</svg>
