<svg width="67" height="41" viewBox="0 0 67 41" fill="none" xmlns="http://www.w3.org/2000/svg">
<path d="M31.9353 20.1056V25.4776H30.1544V12.2154H34.8621C35.4262 12.2063 35.9866 12.3042 36.511 12.5035C37.0355 12.7029 37.5138 12.9998 37.9183 13.3771C38.3015 13.7203 38.6105 14.1325 38.8275 14.5903C39.0446 15.048 39.1655 15.5424 39.1834 16.045C39.2013 16.5476 39.1158 17.0487 38.9317 17.5196C38.7477 17.9905 38.4687 18.422 38.1108 18.7894L37.9183 18.9841C37.0961 19.7345 35.9975 20.1425 34.8621 20.1156L31.9353 20.1056ZM31.9353 13.8405V18.5208H34.9058C35.5654 18.541 36.2022 18.2942 36.664 17.8426C36.9944 17.5122 37.2162 17.0958 37.3019 16.6454C37.3876 16.1949 37.3334 15.7302 37.146 15.3091C36.9587 14.8879 36.6464 14.529 36.2481 14.2768C35.8498 14.0246 35.383 13.8904 34.9058 13.8908L31.9353 13.8405ZM43.2786 16.1034C44.4157 16.0531 45.5283 16.419 46.389 17.1325C47.1675 17.8544 47.5821 18.8616 47.5262 19.9007V25.4977H45.831V24.2118H45.7452C45.4412 24.6941 45.0113 25.0919 44.4981 25.366C43.9848 25.6401 43.4058 25.781 42.8185 25.7747C41.8596 25.8045 40.9245 25.4848 40.2013 24.8799C39.8587 24.6117 39.5841 24.2722 39.3983 23.8871C39.2125 23.5021 39.1204 23.0815 39.1289 22.6573C39.1087 22.2285 39.1955 21.8013 39.382 21.4112C39.5686 21.0211 39.8494 20.6794 40.2013 20.4144C41.0645 19.8188 42.1093 19.5147 43.1718 19.5499C44.0763 19.5163 44.9738 19.706 45.7785 20.1056V19.7564C45.7844 19.4677 45.7218 19.1815 45.5954 18.9194C45.469 18.6574 45.2822 18.4263 45.049 18.2438C44.5807 17.8353 43.9673 17.6143 43.3345 17.626C42.875 17.6219 42.422 17.7302 42.0182 17.9408C41.6144 18.1515 41.2733 18.4574 41.0271 18.8297L39.4613 17.8829C39.8865 17.2984 40.4605 16.828 41.1286 16.5165C41.7968 16.205 42.5369 16.0628 43.2786 16.1034ZM41.0271 22.6975C41.0228 22.915 41.0744 23.1301 41.1772 23.3239C41.28 23.5176 41.4309 23.6842 41.6166 23.8089C42.0067 24.1043 42.4913 24.2605 42.9899 24.2504C43.7404 24.2487 44.4594 23.965 44.9947 23.458C45.5283 22.9779 45.831 22.3081 45.831 21.6064C45.1575 21.1469 44.3392 20.9251 43.5147 20.9785C42.8746 20.9543 42.2432 21.1273 41.7128 21.4721C41.5028 21.6069 41.3304 21.7892 41.2108 22.0028C41.0913 22.2165 41.0282 22.455 41.0271 22.6975ZM57.2722 16.4022L51.3416 29.4797H49.5083L51.7493 24.9001L47.8585 16.4022H49.7882L52.6082 22.9242L55.3531 16.4022H57.2722Z" fill="#BABABA"/>
<path d="M24.7599 18.9429C24.7599 18.4258 24.7179 17.9088 24.6322 17.3984H17.1272V20.3312H21.415C21.3277 20.7973 21.1433 21.2417 20.8727 21.6378C20.6022 22.0338 20.2511 22.3734 19.8405 22.6361V24.5398H22.4017C23.1804 23.8168 23.7926 22.9452 24.1988 21.9811C24.605 21.0171 24.7961 19.9821 24.7599 18.9429Z" fill="#BABABA"/>
<path d="M17.1317 26.3896C19.0671 26.4405 20.9501 25.782 22.3974 24.548L19.8328 22.6342C19.2166 23.0133 18.5183 23.2526 17.7912 23.3339C17.0641 23.4152 16.3273 23.3363 15.6368 23.1032C14.9462 22.8701 14.3202 22.489 13.8062 21.9889C13.2922 21.4887 12.9038 20.8826 12.6706 20.2168H10.043V22.1809C10.7005 23.4451 11.712 24.5085 12.9641 25.2519C14.2162 25.9952 15.6593 26.3892 17.1317 26.3896Z" fill="#BABABA"/>
<path d="M12.6714 20.2283C12.3387 19.2837 12.3387 18.2603 12.6714 17.3157V15.3516H10.0438C9.4836 16.4116 9.19167 17.5834 9.19167 18.772C9.19167 19.9606 9.4836 21.1324 10.0438 22.1925L12.6714 20.2283Z" fill="#BABABA"/>
<path d="M17.1316 14.1704C18.2635 14.1506 19.3577 14.5609 20.1756 15.3119L22.4498 13.1413C20.9997 11.8353 19.0763 11.1229 17.0879 11.1554C15.6242 11.1624 14.1912 11.5583 12.9477 12.2991C11.7042 13.0398 10.6988 14.0966 10.0429 15.3522L12.6706 17.318C12.9778 16.4117 13.5734 15.6205 14.3736 15.0559C15.1739 14.4913 16.1384 14.1816 17.1316 14.1704Z" fill="#BABABA"/>
</svg>
