<svg width="67" height="41" viewBox="0 0 67 41" fill="none" xmlns="http://www.w3.org/2000/svg">
<path d="M26.4727 31.899C33.236 31.899 38.7187 26.6378 38.7187 20.1477C38.7187 13.6577 33.236 8.39648 26.4727 8.39648C19.7095 8.39648 14.2268 13.6577 14.2268 20.1477C14.2268 26.6378 19.7095 31.899 26.4727 31.899Z" fill="#BABABA"/>
<path d="M40.4736 31.899C47.2368 31.899 52.7195 26.6378 52.7195 20.1477C52.7195 13.6577 47.2368 8.39648 40.4736 8.39648C33.7103 8.39648 28.2276 13.6577 28.2276 20.1477C28.2276 26.6378 33.7103 31.899 40.4736 31.899Z" fill="#BABABA"/>
<path d="M38.7242 20.147C38.7242 16.118 36.6249 12.5926 33.4759 10.5781C30.3269 12.7605 28.2276 16.2859 28.2276 20.147C28.2276 24.0081 30.3269 27.7014 33.4759 29.7159C36.6249 27.7014 38.7242 24.176 38.7242 20.147Z" fill="#71717A" fill-opacity="0.4"/>
</svg>
