<svg width="67" height="41" viewBox="0 0 67 41" fill="none" xmlns="http://www.w3.org/2000/svg">
<g clip-path="url(#clip0_39_6906)">
<path d="M37.5851 16.3041C37.5851 19.1043 35.526 21.102 32.65 21.102H29.9401C29.8954 21.1026 29.8517 21.1157 29.8145 21.1395C29.7773 21.1633 29.748 21.1969 29.7302 21.2363C29.7187 21.2623 29.7128 21.2903 29.7127 21.3186V24.9984C29.7127 25.027 29.7068 25.0553 29.6953 25.0816C29.6839 25.108 29.6671 25.132 29.646 25.1521C29.6248 25.1722 29.5997 25.1882 29.5721 25.1989C29.5446 25.2097 29.515 25.2152 29.4853 25.2149H27.5889C27.5286 25.2149 27.4707 25.1919 27.4281 25.151C27.3854 25.1101 27.3615 25.0546 27.3615 24.9967V11.7262C27.3607 11.683 27.3737 11.6405 27.3987 11.6045C27.4237 11.5686 27.4595 11.5407 27.5014 11.5247C27.5291 11.5136 27.5588 11.5079 27.5889 11.5079H32.6622C35.526 11.5079 37.5851 13.5057 37.5851 16.3058V16.3041ZM35.2199 16.3041C35.2199 14.6959 34.0687 13.5208 32.5082 13.5208H29.9401C29.9102 13.5208 29.8807 13.5264 29.8531 13.5374C29.8255 13.5483 29.8004 13.5644 29.7793 13.5847C29.7582 13.605 29.7414 13.629 29.73 13.6555C29.7186 13.682 29.7127 13.7103 29.7127 13.739V18.8592C29.7123 18.8879 29.7181 18.9164 29.7295 18.9429C29.7409 18.9695 29.7578 18.9935 29.7792 19.0136C29.8002 19.034 29.8253 19.0501 29.853 19.061C29.8806 19.072 29.9102 19.0776 29.9401 19.0774H32.5082C34.0687 19.0858 35.2199 17.9107 35.2199 16.3041ZM38.1484 22.6683C38.1284 22.2382 38.2216 21.8102 38.4194 21.4238C38.6173 21.0374 38.9133 20.705 39.2803 20.4574C40.0203 19.9269 41.1766 19.6516 42.8753 19.5945L44.6825 19.534V19.0254C44.6825 18.0064 43.9652 17.5766 42.8141 17.5766C41.663 17.5766 40.9335 17.9644 40.7673 18.6007C40.7531 18.6454 40.724 18.6844 40.6845 18.7117C40.645 18.7389 40.5973 18.753 40.5486 18.7518H38.7607C38.7115 18.7524 38.6634 18.7376 38.6236 18.7098C38.5839 18.6819 38.5546 18.6425 38.5403 18.5973C38.5308 18.5674 38.5284 18.5359 38.5333 18.505C38.7992 16.9975 40.1147 15.8526 42.8963 15.8526C45.8563 15.8526 46.9252 17.167 46.9252 19.6734V24.9984C46.925 25.0272 46.9188 25.0557 46.9071 25.0822C46.8953 25.1087 46.8782 25.1327 46.8568 25.1528C46.8353 25.1729 46.8099 25.1888 46.782 25.1995C46.7541 25.2101 46.7243 25.2154 46.6943 25.2149H44.8924C44.8321 25.2149 44.7742 25.1919 44.7316 25.151C44.6889 25.1101 44.665 25.0546 44.665 24.9967V24.6005C44.6656 24.5676 44.6556 24.5354 44.6366 24.5081C44.6175 24.4808 44.5902 24.4597 44.5583 24.4478C44.5267 24.4358 44.4922 24.433 44.459 24.4395C44.4257 24.4461 44.3952 24.4618 44.3711 24.4847C43.8288 25.0454 42.9575 25.45 41.5598 25.45C39.5042 25.45 38.1484 24.431 38.1484 22.6683ZM44.6825 21.515V21.102L42.34 21.2195C41.1067 21.2799 40.3894 21.7668 40.3894 22.5894C40.3894 23.3347 41.0472 23.7477 42.1983 23.7477C43.7605 23.7477 44.6825 22.9419 44.6825 21.515ZM48.7341 29.2372V27.6945C48.7346 27.6621 48.7425 27.6303 48.7573 27.6013C48.7721 27.5722 48.7935 27.5467 48.8199 27.5266C48.846 27.5063 48.8765 27.4917 48.9091 27.4839C48.9417 27.476 48.9758 27.4751 49.0088 27.4813C49.2852 27.5299 49.5651 27.5551 49.8468 27.5551C50.3292 27.5805 50.8065 27.4492 51.2016 27.1824C51.5968 26.9156 51.8867 26.5288 52.0248 26.0845L52.142 25.7303C52.1595 25.6825 52.1595 25.6304 52.142 25.5826L48.3895 16.3981C48.3678 16.3477 48.3665 16.2913 48.3859 16.2401C48.4053 16.1888 48.4441 16.1464 48.4945 16.1212C48.5279 16.1042 48.5652 16.0956 48.6029 16.096H50.4223C50.469 16.0961 50.5146 16.1098 50.553 16.1353C50.5914 16.1607 50.6209 16.1968 50.6375 16.2387L53.1847 22.717C53.2004 22.7605 53.23 22.7981 53.2692 22.8246C53.3085 22.8511 53.3554 22.8651 53.4033 22.8647C53.4512 22.8646 53.4979 22.8504 53.537 22.824C53.5761 22.7975 53.6058 22.7602 53.622 22.717L55.835 16.2571C55.85 16.2126 55.8796 16.1739 55.9193 16.1467C55.9589 16.1195 56.0067 16.1052 56.0555 16.106H57.9378C57.9943 16.1064 58.0488 16.1262 58.0912 16.162C58.1336 16.1978 58.1612 16.2471 58.1688 16.3008C58.173 16.3366 58.1682 16.3729 58.1548 16.4065L54.1399 26.6066C53.2162 28.9787 51.6329 29.583 49.8888 29.583C49.5578 29.5918 49.2272 29.5545 48.9073 29.4722C48.8537 29.4596 48.8066 29.429 48.7745 29.3858C48.7424 29.3427 48.7274 29.29 48.7324 29.2372H48.7341ZM15.1715 10.7424C12.7844 10.7253 10.4803 11.582 8.72836 13.138C8.65381 13.2031 8.60728 13.2925 8.5979 13.3888C8.58851 13.4851 8.61695 13.5812 8.67762 13.6584L9.75877 15.0669C9.7938 15.1144 9.8393 15.1539 9.89204 15.1826C9.94478 15.2113 10.0035 15.2285 10.0639 15.233C10.1244 15.2375 10.1851 15.2292 10.2418 15.2086C10.2985 15.188 10.3498 15.1557 10.3921 15.1139C11.0217 14.5139 11.7695 14.0402 12.5919 13.7202C13.4142 13.4003 14.2947 13.2406 15.182 13.2505C18.8907 13.2505 20.8274 15.9096 20.8274 18.5386C20.8274 21.3924 18.7928 23.4036 15.8677 23.4422C13.6075 23.4422 11.9036 22.0152 11.9036 20.1283C11.9055 19.6512 12.0185 19.1805 12.2343 18.7506C12.4501 18.3208 12.7633 17.9426 13.1509 17.6438C13.2334 17.5788 13.2858 17.4852 13.2966 17.3832C13.3075 17.2813 13.2758 17.1795 13.2086 17.0999L12.0715 15.7317C12.0372 15.6896 11.9943 15.6547 11.9455 15.6289C11.8968 15.6031 11.8431 15.5871 11.7877 15.5818C11.7323 15.5764 11.6763 15.5819 11.6232 15.5979C11.57 15.6138 11.5208 15.6399 11.4784 15.6746C10.782 16.2107 10.219 16.8892 9.83049 17.6606C9.44337 18.4302 9.24187 19.2737 9.24094 20.1283C9.24094 23.3767 12.1362 25.9234 15.845 25.9435H15.8975C20.3008 25.8898 23.4847 22.7808 23.4847 18.5318C23.4847 14.7597 20.5684 10.7424 15.1715 10.7424Z" fill="#BABABA"/>
</g>
<defs>
<clipPath id="clip0_39_6906">
<rect width="66.478" height="40.29" fill="white" transform="translate(0.183289)"/>
</clipPath>
</defs>
</svg>
