<svg width="67" height="41" viewBox="0 0 67 41" fill="none" xmlns="http://www.w3.org/2000/svg">
<path d="M49.6431 16.957H49.1183C48.4185 18.6358 47.8937 19.4751 47.3689 21.9933H50.6928C50.1679 19.4751 50.1679 18.3 49.6431 16.957ZM54.7164 26.8616H51.7424C51.5675 26.8616 51.5675 26.8616 51.3925 26.6938L51.0426 25.1829L50.8677 24.8471H46.6691C46.4942 24.8471 46.3192 24.8471 46.3192 25.1829L45.7944 26.6938C45.7944 26.8616 45.6194 26.8616 45.6194 26.8616H41.9457L42.2955 26.0223L47.3689 14.6068C47.3689 13.7674 47.8937 13.4316 48.7684 13.4316H51.3925C51.5675 13.4316 51.7424 13.4316 51.7424 13.7674L54.1916 24.6793C54.3666 25.3508 54.5415 25.8544 54.5415 26.5259C54.7164 26.6938 54.7164 26.6938 54.7164 26.8616ZM31.2742 26.358L31.974 23.3363C32.1489 23.3363 32.3238 23.5041 32.3238 23.5041C33.5484 24.0078 34.773 24.3435 35.9976 24.1756C36.3475 24.1756 36.8723 24.0078 37.2222 23.8399C38.0969 23.5041 38.0969 22.6648 37.3972 21.9933C37.0473 21.6575 36.5225 21.4896 35.9976 21.1539C35.2979 20.8181 34.5981 20.4824 34.0733 19.9788C31.974 18.3 32.6737 15.9498 33.8983 14.7746C34.948 14.1031 35.4728 13.4316 36.8723 13.4316C38.9716 13.4316 41.2459 13.4316 42.2955 13.7674H42.4705C42.2955 14.7746 42.1206 15.614 41.7707 16.6213C40.896 16.2855 40.0213 15.9498 39.1466 15.9498C38.6218 15.9498 38.0969 15.9498 37.5721 16.1176C37.2222 16.1176 37.0473 16.2855 36.8723 16.4534C36.5225 16.7891 36.5225 17.2928 36.8723 17.6285L37.747 18.3C38.4468 18.6358 39.1466 18.9715 39.6714 19.3073C40.5461 19.8109 41.4208 20.6503 41.5958 21.6575C41.9457 23.1684 41.4208 24.5114 40.0213 25.5186C39.1466 26.1901 38.7967 26.5259 37.5721 26.5259C35.1229 26.5259 33.1986 26.6938 31.6241 26.1901C31.4491 26.5259 31.4491 26.5259 31.2742 26.358ZM25.1512 26.8616C25.3262 25.6865 25.3262 25.6865 25.5011 25.1829C26.3758 21.4896 27.2505 17.6285 27.9503 13.9353C28.1252 13.5995 28.1252 13.4316 28.4751 13.4316H31.6241C31.2742 15.4461 30.9243 16.957 30.3995 18.8036C29.8746 21.3218 29.3498 23.8399 28.6501 26.358C28.6501 26.6938 28.4751 26.6938 28.1252 26.6938L25.1512 26.8616ZM8.88159 13.7674C8.88159 13.5995 9.23148 13.4316 9.40642 13.4316H15.3545C16.2292 13.4316 16.9289 13.9353 17.1039 14.7746L18.6784 22.1611C18.6784 22.329 18.6784 22.329 18.8533 22.4969C18.8533 22.329 19.0282 22.329 19.0282 22.329L22.702 13.7674C22.5271 13.5995 22.702 13.4316 22.877 13.4316H26.5507C26.5507 13.5995 26.5507 13.5995 26.3758 13.7674L20.9526 26.0223C20.7777 26.358 20.7777 26.5259 20.6027 26.6938C20.4278 26.8616 20.0779 26.6938 19.728 26.6938H17.1039C16.9289 26.6938 16.754 26.6938 16.754 26.358L13.9549 15.9498C13.605 15.614 13.0802 15.1104 12.3804 14.9425C11.3308 14.4389 9.40642 14.1031 9.05653 14.1031L8.88159 13.7674Z" fill="#BABABA"/>
</svg>
