<svg width="18" height="23" viewBox="0 0 18 23" fill="none" xmlns="http://www.w3.org/2000/svg">
<path d="M9 0.5L17.217 2.326C17.4391 2.37536 17.6377 2.49897 17.78 2.6764C17.9224 2.85384 18 3.07452 18 3.302V13.289C17.9999 14.2767 17.756 15.2492 17.2899 16.12C16.8238 16.9908 16.1499 17.7331 15.328 18.281L9 22.5L2.672 18.281C1.85027 17.7332 1.17646 16.9911 0.71035 16.1205C0.24424 15.2498 0.00024 14.2776 0 13.29V3.302C4e-05 3.07452 0.07764 2.85384 0.21999 2.6764C0.36234 2.49897 0.56094 2.37536 0.783 2.326L9 0.5ZM9 6.5C8.5597 6.50002 8.1318 6.6453 7.7825 6.91332C7.4333 7.18133 7.1822 7.5571 7.0682 7.98236C6.95429 8.40761 6.98384 8.85857 7.1523 9.26532C7.3208 9.6721 7.6187 10.0119 8 10.232V14.5H10L10.001 10.232C10.3823 10.0118 10.6803 9.6719 10.8488 9.26509C11.0172 8.85824 11.0467 8.40718 10.9326 7.98187C10.8186 7.55657 10.5673 7.1808 10.2179 6.91286C9.8684 6.64492 9.4403 6.4998 9 6.5Z" fill="#F8F7F5"/>
</svg>
