<svg width="30" height="31" viewBox="0 0 30 31" fill="none" xmlns="http://www.w3.org/2000/svg">
<path d="M25.4647 4.91251C22.9671 2.38999 19.6503 0.843008 16.1125 0.550609C12.5748 0.258211 9.049 1.23964 6.17114 3.31787C3.29329 5.39611 1.25281 8.43433 0.41776 11.8845C-0.417287 15.3347 0.00807185 18.9697 1.61711 22.1339L0.037638 29.8021C0.0212493 29.8785 0.0207851 29.9574 0.0362748 30.0339C0.0517645 30.1104 0.0828744 30.1829 0.127659 30.2468C0.193266 30.3438 0.286915 30.4185 0.396101 30.4609C0.505287 30.5034 0.624813 30.5114 0.738716 30.4841L8.25416 28.7028C11.4095 30.2711 15.0188 30.6691 18.44 29.826C21.8612 28.9829 24.8724 26.9533 26.9376 24.0985C29.0029 21.2437 29.9884 17.7487 29.7186 14.2355C29.4489 10.7222 27.9415 7.41864 25.4647 4.91251ZM23.1214 23.6152C21.3933 25.3384 19.168 26.476 16.7592 26.8675C14.3504 27.259 11.8794 26.8848 9.69451 25.7975L8.64699 25.2792L4.03951 26.3704L4.05315 26.3131L5.00793 21.6756L4.49508 20.6636C3.3787 18.4711 2.98488 15.9815 3.37004 13.5514C3.7552 11.1214 4.89958 8.87561 6.63923 7.13577C8.82513 4.95054 11.7895 3.72295 14.8803 3.72295C17.9712 3.72295 20.9355 4.95054 23.1214 7.13577C23.14 7.15712 23.1601 7.17717 23.1814 7.19579C25.3402 9.38665 26.5454 12.3421 26.5341 15.4179C26.5229 18.4936 25.2962 21.4402 23.1214 23.6152Z" fill="white"/>
<path d="M22.7122 20.2124C22.1475 21.1017 21.2555 22.1902 20.1343 22.4603C18.1702 22.9349 15.1558 22.4766 11.4049 18.9794L11.3586 18.9385C8.06049 15.8805 7.20392 13.3353 7.41124 11.3167C7.52582 10.1709 8.48059 9.13432 9.28533 8.45779C9.41256 8.34921 9.56343 8.2719 9.72588 8.23204C9.88833 8.19219 10.0578 8.19091 10.2209 8.22828C10.3839 8.26566 10.5359 8.34067 10.6648 8.44731C10.7937 8.55395 10.8958 8.68926 10.963 8.84243L12.1769 11.5704C12.2558 11.7472 12.2851 11.9423 12.2615 12.1345C12.238 12.3267 12.1625 12.5089 12.0433 12.6615L11.4295 13.4581C11.2978 13.6226 11.2183 13.8227 11.2013 14.0327C11.1843 14.2427 11.2305 14.453 11.334 14.6366C11.6777 15.2394 12.5016 16.126 13.4154 16.9471C14.4411 17.8746 15.5787 18.723 16.2988 19.0122C16.4915 19.0909 16.7034 19.1101 16.9071 19.0673C17.1109 19.0245 17.2971 18.9217 17.4418 18.7721L18.1538 18.0547C18.2912 17.9192 18.4621 17.8226 18.649 17.7746C18.8359 17.7267 19.0321 17.7292 19.2177 17.7819L22.1012 18.6002C22.2602 18.649 22.406 18.7335 22.5274 18.8473C22.6488 18.9611 22.7425 19.1011 22.8015 19.2567C22.8605 19.4123 22.8831 19.5793 22.8676 19.7449C22.8521 19.9106 22.799 20.0705 22.7122 20.2124Z" fill="white"/>
</svg>
